{
    "asset" : {
        "generator" : "Khronos glTF Blender I/O v1.1.45",
        "version" : "2.0"
    },
    "scene" : 0,
    "scenes" : [
        {
            "name" : "Scene",
            "nodes" : [
                0,
                1,
                2,
                3
            ]
        }
    ],
    "nodes" : [
        {
            "mesh" : 0,
            "name" : "Way"
        },
        {
            "mesh" : 1,
            "name" : "Enviroment"
        },
        {
            "mesh" : 2,
            "name" : "Water"
        },
        {
            "mesh" : 3,
            "name" : "Way_COL"
        }
    ],
    "materials" : [
        {
            "emissiveFactor" : [
                0,
                0,
                0
            ],
            "name" : "wall",
            "pbrMetallicRoughness" : {
                "baseColorTexture" : {
                    "index" : 0,
                    "texCoord" : 0
                },
                "metallicFactor" : 0,
                "roughnessFactor" : 1
            }
        },
        {
            "emissiveFactor" : [
                0,
                0,
                0
            ],
            "name" : "way",
            "pbrMetallicRoughness" : {
                "baseColorTexture" : {
                    "index" : 1,
                    "texCoord" : 0
                },
                "metallicFactor" : 0,
                "roughnessFactor" : 1
            }
        },
        {
            "emissiveFactor" : [
                0,
                0,
                0
            ],
            "name" : "water",
            "pbrMetallicRoughness" : {
                "baseColorTexture" : {
                    "index" : 2,
                    "texCoord" : 0
                },
                "metallicFactor" : 0,
                "roughnessFactor" : 0.20000000298023224
            }
        }
    ],
    "meshes" : [
        {
            "name" : "Way",
            "primitives" : [
                {
                    "attributes" : {
                        "POSITION" : 0,
                        "NORMAL" : 1,
                        "TEXCOORD_0" : 2
                    },
                    "indices" : 3,
                    "material" : 0
                },
                {
                    "attributes" : {
                        "POSITION" : 4,
                        "NORMAL" : 5,
                        "TEXCOORD_0" : 6
                    },
                    "indices" : 7,
                    "material" : 1
                }
            ]
        },
        {
            "name" : "\u5186\u67f1.004",
            "primitives" : [
                {
                    "attributes" : {
                        "POSITION" : 8,
                        "NORMAL" : 9,
                        "TEXCOORD_0" : 10
                    },
                    "indices" : 11,
                    "material" : 0
                },
                {
                    "attributes" : {
                        "POSITION" : 12,
                        "NORMAL" : 13,
                        "TEXCOORD_0" : 14
                    },
                    "indices" : 15,
                    "material" : 1
                }
            ]
        },
        {
            "name" : "\u5e73\u9762.002",
            "primitives" : [
                {
                    "attributes" : {
                        "POSITION" : 16,
                        "NORMAL" : 17,
                        "TEXCOORD_0" : 18
                    },
                    "indices" : 19,
                    "material" : 2
                }
            ]
        },
        {
            "name" : "Way.001",
            "primitives" : [
                {
                    "attributes" : {
                        "POSITION" : 20,
                        "NORMAL" : 21,
                        "TEXCOORD_0" : 22
                    },
                    "indices" : 23
                }
            ]
        }
    ],
    "textures" : [
        {
            "source" : 0
        },
        {
            "source" : 1
        },
        {
            "source" : 2
        }
    ],
    "images" : [
        {
            "mimeType" : "image/png",
            "name" : "wall",
            "uri" : "wall.png"
        },
        {
            "mimeType" : "image/png",
            "name" : "Way",
            "uri" : "Way.png"
        },
        {
            "mimeType" : "image/png",
            "name" : "water",
            "uri" : "water.png"
        }
    ],
    "accessors" : [
        {
            "bufferView" : 0,
            "componentType" : 5126,
            "count" : 834,
            "max" : [
                14.9892578125,
                3.9935128688812256,
                1.6681933403015137
            ],
            "min" : [
                -1.7410495281219482,
                7.152557373046875e-07,
                -31.164722442626953
            ],
            "type" : "VEC3"
        },
        {
            "bufferView" : 1,
            "componentType" : 5126,
            "count" : 834,
            "type" : "VEC3"
        },
        {
            "bufferView" : 2,
            "componentType" : 5126,
            "count" : 834,
            "type" : "VEC2"
        },
        {
            "bufferView" : 3,
            "componentType" : 5123,
            "count" : 1416,
            "type" : "SCALAR"
        },
        {
            "bufferView" : 4,
            "componentType" : 5126,
            "count" : 284,
            "max" : [
                14.9892578125,
                3.9935128688812256,
                1.6681933403015137
            ],
            "min" : [
                -1.7410495281219482,
                1.053412675857544,
                -31.164722442626953
            ],
            "type" : "VEC3"
        },
        {
            "bufferView" : 5,
            "componentType" : 5126,
            "count" : 284,
            "type" : "VEC3"
        },
        {
            "bufferView" : 6,
            "componentType" : 5126,
            "count" : 284,
            "type" : "VEC2"
        },
        {
            "bufferView" : 7,
            "componentType" : 5123,
            "count" : 708,
            "type" : "SCALAR"
        },
        {
            "bufferView" : 8,
            "componentType" : 5126,
            "count" : 2168,
            "max" : [
                20.100669860839844,
                6.156373023986816,
                3.025123119354248
            ],
            "min" : [
                -8.196760177612305,
                -3.901528089045314e-06,
                -35.065555572509766
            ],
            "type" : "VEC3"
        },
        {
            "bufferView" : 9,
            "componentType" : 5126,
            "count" : 2168,
            "type" : "VEC3"
        },
        {
            "bufferView" : 10,
            "componentType" : 5126,
            "count" : 2168,
            "type" : "VEC2"
        },
        {
            "bufferView" : 11,
            "componentType" : 5123,
            "count" : 6348,
            "type" : "SCALAR"
        },
        {
            "bufferView" : 12,
            "componentType" : 5126,
            "count" : 1274,
            "max" : [
                20.100669860839844,
                6.156373023986816,
                3.025123119354248
            ],
            "min" : [
                -8.196760177612305,
                0.47571641206741333,
                -35.065555572509766
            ],
            "type" : "VEC3"
        },
        {
            "bufferView" : 13,
            "componentType" : 5126,
            "count" : 1274,
            "type" : "VEC3"
        },
        {
            "bufferView" : 14,
            "componentType" : 5126,
            "count" : 1274,
            "type" : "VEC2"
        },
        {
            "bufferView" : 15,
            "componentType" : 5123,
            "count" : 3042,
            "type" : "SCALAR"
        },
        {
            "bufferView" : 16,
            "componentType" : 5126,
            "count" : 4,
            "max" : [
                22.151599884033203,
                0.9999996423721313,
                4.737630367279053
            ],
            "min" : [
                -10.151599884033203,
                0.9999996423721313,
                -38.33330154418945
            ],
            "type" : "VEC3"
        },
        {
            "bufferView" : 17,
            "componentType" : 5126,
            "count" : 4,
            "type" : "VEC3"
        },
        {
            "bufferView" : 18,
            "componentType" : 5126,
            "count" : 4,
            "type" : "VEC2"
        },
        {
            "bufferView" : 19,
            "componentType" : 5123,
            "count" : 6,
            "type" : "SCALAR"
        },
        {
            "bufferView" : 20,
            "componentType" : 5126,
            "count" : 367,
            "max" : [
                15.019657135009766,
                7.2732744216918945,
                1.727175235748291
            ],
            "min" : [
                -1.7410495281219482,
                1.0470900535583496,
                -31.164722442626953
            ],
            "type" : "VEC3"
        },
        {
            "bufferView" : 21,
            "componentType" : 5126,
            "count" : 367,
            "type" : "VEC3"
        },
        {
            "bufferView" : 22,
            "componentType" : 5126,
            "count" : 367,
            "type" : "VEC2"
        },
        {
            "bufferView" : 23,
            "componentType" : 5123,
            "count" : 1602,
            "type" : "SCALAR"
        }
    ],
    "bufferViews" : [
        {
            "buffer" : 0,
            "byteLength" : 10008,
            "byteOffset" : 0
        },
        {
            "buffer" : 0,
            "byteLength" : 10008,
            "byteOffset" : 10008
        },
        {
            "buffer" : 0,
            "byteLength" : 6672,
            "byteOffset" : 20016
        },
        {
            "buffer" : 0,
            "byteLength" : 2832,
            "byteOffset" : 26688
        },
        {
            "buffer" : 0,
            "byteLength" : 3408,
            "byteOffset" : 29520
        },
        {
            "buffer" : 0,
            "byteLength" : 3408,
            "byteOffset" : 32928
        },
        {
            "buffer" : 0,
            "byteLength" : 2272,
            "byteOffset" : 36336
        },
        {
            "buffer" : 0,
            "byteLength" : 1416,
            "byteOffset" : 38608
        },
        {
            "buffer" : 0,
            "byteLength" : 26016,
            "byteOffset" : 40024
        },
        {
            "buffer" : 0,
            "byteLength" : 26016,
            "byteOffset" : 66040
        },
        {
            "buffer" : 0,
            "byteLength" : 17344,
            "byteOffset" : 92056
        },
        {
            "buffer" : 0,
            "byteLength" : 12696,
            "byteOffset" : 109400
        },
        {
            "buffer" : 0,
            "byteLength" : 15288,
            "byteOffset" : 122096
        },
        {
            "buffer" : 0,
            "byteLength" : 15288,
            "byteOffset" : 137384
        },
        {
            "buffer" : 0,
            "byteLength" : 10192,
            "byteOffset" : 152672
        },
        {
            "buffer" : 0,
            "byteLength" : 6084,
            "byteOffset" : 162864
        },
        {
            "buffer" : 0,
            "byteLength" : 48,
            "byteOffset" : 168948
        },
        {
            "buffer" : 0,
            "byteLength" : 48,
            "byteOffset" : 168996
        },
        {
            "buffer" : 0,
            "byteLength" : 32,
            "byteOffset" : 169044
        },
        {
            "buffer" : 0,
            "byteLength" : 12,
            "byteOffset" : 169076
        },
        {
            "buffer" : 0,
            "byteLength" : 4404,
            "byteOffset" : 169088
        },
        {
            "buffer" : 0,
            "byteLength" : 4404,
            "byteOffset" : 173492
        },
        {
            "buffer" : 0,
            "byteLength" : 2936,
            "byteOffset" : 177896
        },
        {
            "buffer" : 0,
            "byteLength" : 3204,
            "byteOffset" : 180832
        }
    ],
    "buffers" : [
        {
            "byteLength" : 184036,
            "uri" : "Cave.bin"
        }
    ]
}
